<?xml version="1.0" encoding="UTF-8"?>
<svg version="1.1" xmlns="http://www.w3.org/2000/svg" width="83" height="24">
<path d="M0 0 C1.5778125 0.4640625 1.5778125 0.4640625 3.1875 0.9375 C6.12752396 1.75685094 9.00161623 2.45483931 12 3 C12.33 5.97 12.66 8.94 13 12 C15.29255415 8.39517786 15.29255415 8.39517786 14.625 5.75 C14.41875 5.1725 14.2125 4.595 14 4 C16.70834531 2.22915883 17.89264459 1.98947496 21.1875 2.3125 C24 3 24 3 25 4 C25.23503102 5.43049744 25.41381264 6.8704686 25.5625 8.3125 C25.64628906 9.09238281 25.73007813 9.87226563 25.81640625 10.67578125 C25.98247913 12.77819329 26 14.89103897 26 17 C12.44615385 17 12.44615385 17 6.375 16.5625 C5.20710938 16.48128906 4.03921875 16.40007813 2.8359375 16.31640625 C0 16 0 16 -1 15 C-1.07179964 13.48071962 -1.08392007 11.95832518 -1.0625 10.4375 C-1.05347656 9.61121094 -1.04445313 8.78492188 -1.03515625 7.93359375 C-1.02355469 7.29550781 -1.01195312 6.65742188 -1 6 C-2.98 6 -4.96 6 -7 6 C-7 8.31 -7 10.62 -7 13 C-5.68 13.33 -4.36 13.66 -3 14 C-3.33 14.66 -3.66 15.32 -4 16 C-8.875 15.125 -8.875 15.125 -10 14 C-10.07179964 12.48071962 -10.08392007 10.95832518 -10.0625 9.4375 C-10.05347656 8.61121094 -10.04445312 7.78492188 -10.03515625 6.93359375 C-10.02355469 6.29550781 -10.01195312 5.65742188 -10 5 C-10.66 4.67 -11.32 4.34 -12 4 C-10.68 3.01 -9.36 2.02 -8 1 C-7.67 1.33 -7.34 1.66 -7 2 C-5.00041636 2.04080783 -2.99954746 2.04254356 -1 2 C-0.67 1.34 -0.34 0.68 0 0 Z M5 5 C4.01 5.495 4.01 5.495 3 6 C3 8.31 3 10.62 3 13 C4.94603274 13.59070014 4.94603274 13.59070014 7 14 C8.41577477 12.81575674 8.41577477 12.81575674 8.0625 9.4375 C8.041875 8.303125 8.02125 7.16875 8 6 C7.01 5.67 6.02 5.34 5 5 Z M18 6 C17.67 6.66 17.34 7.32 17 8 C18.32 8 19.64 8 21 8 C21 7.34 21 6.68 21 6 C20.01 6 19.02 6 18 6 Z M18 11 C18 11.66 18 12.32 18 13 C18.99 12.67 19.98 12.34 21 12 C20.01 11.67 19.02 11.34 18 11 Z " fill="#EEF3F7" transform="translate(54,4)"/>
<path d="M0 0 C0.94921875 1.84765625 0.94921875 1.84765625 1.6875 4.0625 C2.06455078 5.16271484 2.06455078 5.16271484 2.44921875 6.28515625 C2.63097656 6.85105469 2.81273437 7.41695312 3 8 C5.40072955 5.11912454 7.47291037 2.43595166 9 -1 C10.65 -1 12.3 -1 14 -1 C14 -0.01 14 0.98 14 2 C13.34 2 12.68 2 12 2 C12.01160156 2.77085938 12.02320312 3.54171875 12.03515625 4.3359375 C12.04417969 5.33882812 12.05320312 6.34171875 12.0625 7.375 C12.07410156 8.37273438 12.08570312 9.37046875 12.09765625 10.3984375 C12 13 12 13 11 15 C11.99 15.33 12.98 15.66 14 16 C11.69 16 9.38 16 7 16 C7.66 15.67 8.32 15.34 9 15 C8.67 13.68 8.34 12.36 8 11 C7.01 12.32 6.02 13.64 5 15 C1.125 13.25 1.125 13.25 0 11 C-0.66 12.32 -1.32 13.64 -2 15 C-1.34 15 -0.68 15 0 15 C-0.33 15.66 -0.66 16.32 -1 17 C-1.99 16.67 -2.98 16.34 -4 16 C-4.33 11.38 -4.66 6.76 -5 2 C-6.32 2.33 -7.64 2.66 -9 3 C-9 3.66 -9 4.32 -9 5 C-8.01 5 -7.02 5 -6 5 C-6 5.66 -6 6.32 -6 7 C-7.65 7.66 -9.3 8.32 -11 9 C-11.66 7.35 -12.32 5.7 -13 4 C-10.72674319 1.28957842 -9.40421209 0.10723994 -5.9375 -0.8125 C-3 -1 -3 -1 0 0 Z " fill="#F7F6F7" transform="translate(15,3)"/>
<path d="M0 0 C1.5778125 0.4640625 1.5778125 0.4640625 3.1875 0.9375 C6.12752396 1.75685094 9.00161623 2.45483931 12 3 C11.67 3.66 11.34 4.32 11 5 C7.7 5 4.4 5 1 5 C1 7.64 1 10.28 1 13 C0.67 13 0.34 13 0 13 C-0.33 10.69 -0.66 8.38 -1 6 C-2.98 6 -4.96 6 -7 6 C-7 8.31 -7 10.62 -7 13 C-5.68 13.33 -4.36 13.66 -3 14 C-3.33 14.66 -3.66 15.32 -4 16 C-8.875 15.125 -8.875 15.125 -10 14 C-10.07179964 12.48071962 -10.08392007 10.95832518 -10.0625 9.4375 C-10.05347656 8.61121094 -10.04445312 7.78492188 -10.03515625 6.93359375 C-10.02355469 6.29550781 -10.01195312 5.65742188 -10 5 C-10.66 4.67 -11.32 4.34 -12 4 C-10.68 3.01 -9.36 2.02 -8 1 C-7.67 1.33 -7.34 1.66 -7 2 C-5.00041636 2.04080783 -2.99954746 2.04254356 -1 2 C-0.67 1.34 -0.34 0.68 0 0 Z " fill="#F7FCFD" transform="translate(54,4)"/>
<path d="M0 0 C1.65 0.33 3.3 0.66 5 1 C5.36103536 2.81114432 5.71365504 4.62396823 6.0625 6.4375 C6.25972656 7.44683594 6.45695312 8.45617187 6.66015625 9.49609375 C6.77230469 10.32238281 6.88445312 11.14867187 7 12 C6.67 12.33 6.34 12.66 6 13 C3.83067876 12.9358534 1.66328277 12.79900318 -0.5 12.625 C-1.6859375 12.53476562 -2.871875 12.44453125 -4.09375 12.3515625 C-7 12 -7 12 -8 11 C-8.07205511 9.31391034 -8.08386068 7.62499341 -8.0625 5.9375 C-8.05347656 5.01839844 -8.04445312 4.09929688 -8.03515625 3.15234375 C-8.02355469 2.44207031 -8.01195312 1.73179688 -8 1 C-6.02 1 -4.04 1 -2 1 C-2.99 1.495 -2.99 1.495 -4 2 C-4 4.31 -4 6.62 -4 9 C-2.68 9 -1.36 9 0 9 C0 6.03 0 3.06 0 0 Z " fill="#BDBFC1" transform="translate(61,8)"/>
<path d="M0 0 C1.27875 -0.061875 2.5575 -0.12375 3.875 -0.1875 C4.95394531 -0.23970703 4.95394531 -0.23970703 6.0546875 -0.29296875 C6.69664063 -0.19628906 7.33859375 -0.09960938 8 0 C10.10827055 3.16240582 10.33817465 4.50657469 10.625 8.1875 C10.69976562 9.08855469 10.77453125 9.98960938 10.8515625 10.91796875 C10.90054688 11.60503906 10.94953125 12.29210938 11 13 C2.75555556 13.62222222 2.75555556 13.62222222 -0.125 11.25 C-1.15521492 8.60087593 -0.85319183 7.64489467 0 5 C-0.33 4.01 -0.66 3.02 -1 2 C-0.67 1.34 -0.34 0.68 0 0 Z M4 2 C3.01 3.485 3.01 3.485 2 5 C3.65 5 5.3 5 7 5 C6.67 4.01 6.34 3.02 6 2 C5.34 2 4.68 2 4 2 Z M3 8 C3 8.99 3 9.98 3 11 C3.99 10.67 4.98 10.34 6 10 C6 9.34 6 8.68 6 8 C5.01 8 4.02 8 3 8 Z " fill="#F8FBFB" transform="translate(30,7)"/>
<path d="M0 0 C1.74627478 2.61941217 2.38722388 4.03824877 3 7 C2.01 6.67 1.02 6.34 0 6 C0.350625 6.53625 0.70125 7.0725 1.0625 7.625 C2.28924249 10.73274763 1.72856431 12.79431703 1 16 C1.66 16 2.32 16 3 16 C2.67 16.66 2.34 17.32 2 18 C1.01 17.67 0.02 17.34 -1 17 C-1.33 12.38 -1.66 7.76 -2 3 C-3.32 3.33 -4.64 3.66 -6 4 C-6 4.66 -6 5.32 -6 6 C-5.01 6 -4.02 6 -3 6 C-3 6.66 -3 7.32 -3 8 C-4.65 8.66 -6.3 9.32 -8 10 C-8.66 8.35 -9.32 6.7 -10 5 C-6.92000054 1.32769295 -4.7517398 0.43197635 0 0 Z " fill="#FBFBFB" transform="translate(12,2)"/>
<path d="M0 0 C1.051875 0.309375 2.10375 0.61875 3.1875 0.9375 C6.12752396 1.75685094 9.00161623 2.45483931 12 3 C11.67 3.66 11.34 4.32 11 5 C7.7 5 4.4 5 1 5 C1 7.64 1 10.28 1 13 C0.67 13 0.34 13 0 13 C-0.33 10.69 -0.66 8.38 -1 6 C-1.66 6 -2.32 6 -3 6 C-2 4 -1 2 0 0 Z " fill="#EBEFEE" transform="translate(54,4)"/>
<path d="M0 0 C1.65 0 3.3 0 5 0 C5 2.64 5 5.28 5 8 C3.34385343 8.38218767 1.67542976 8.71395102 0 9 C-0.33 8.67 -0.66 8.34 -1 8 C-1.33 8.66 -1.66 9.32 -2 10 C-2.66 9.67 -3.32 9.34 -4 9 C-3.34 6.69 -2.68 4.38 -2 2 C-1.34 2 -0.68 2 0 2 C0 1.34 0 0.68 0 0 Z M1 1 C0.67 1.66 0.34 2.32 0 3 C1.32 3 2.64 3 4 3 C4 2.34 4 1.68 4 1 C3.01 1 2.02 1 1 1 Z M1 6 C1 6.66 1 7.32 1 8 C1.99 7.67 2.98 7.34 4 7 C3.01 6.67 2.02 6.34 1 6 Z " fill="#788585" transform="translate(71,9)"/>
<path d="M0 0 C2.475 0.495 2.475 0.495 5 1 C5.33 3.97 5.66 6.94 6 10 C4.02 10 2.04 10 0 10 C0 6.7 0 3.4 0 0 Z " fill="#B2B2B2" transform="translate(61,8)"/>
<path d="M0 0 C0.66 0 1.32 0 2 0 C2.6708712 1.6232687 3.33657029 3.24867578 4 4.875 C4.556875 6.23238281 4.556875 6.23238281 5.125 7.6171875 C6 10 6 10 6 12 C5.01 12.33 4.02 12.66 3 13 C-1 7.25 -1 7.25 -1 5 C-0.34 4.67 0.32 4.34 1 4 C0.67 2.68 0.34 1.36 0 0 Z " fill="#E6E6E6" transform="translate(13,3)"/>
<path d="M0 0 C0.33 0 0.66 0 1 0 C1 2.31 1 4.62 1 7 C2.32 7.33 3.64 7.66 5 8 C4.67 8.66 4.34 9.32 4 10 C-0.875 9.125 -0.875 9.125 -2 8 C-2.1875 5.0625 -2.1875 5.0625 -2 2 C-1.34 1.34 -0.68 0.68 0 0 Z " fill="#DCF0F2" transform="translate(46,10)"/>
<path d="M0 0 C2.97 0.33 5.94 0.66 9 1 C9 1.99 9 2.98 9 4 C5.7 3.67 2.4 3.34 -1 3 C-0.67 2.01 -0.34 1.02 0 0 Z " fill="#E1E3E5" transform="translate(58,17)"/>
<path d="M0 0 C0.99 0.33 1.98 0.66 3 1 C3.16947579 2.41633336 3.33545507 3.83308533 3.5 5.25 C3.5928125 6.03890625 3.685625 6.8278125 3.78125 7.640625 C4 10 4 10 4 14 C1.03 13.505 1.03 13.505 -2 13 C-0.68 12.67 0.64 12.34 2 12 C1.85904936 10.3745692 1.71207913 8.74965949 1.5625 7.125 C1.44068359 5.76761719 1.44068359 5.76761719 1.31640625 4.3828125 C1.13010715 1.98889139 1.13010715 1.98889139 0 0 Z " fill="#50505B" transform="translate(76,7)"/>
<path d="M0 0 C1.0326802 2.78823655 1.04509293 3.8677274 0.0625 6.75 C-0.288125 7.4925 -0.63875 8.235 -1 9 C-1.99 8.67 -2.98 8.34 -4 8 C-4 7.34 -4 6.68 -4 6 C-3.34 6 -2.68 6 -2 6 C-1.855625 5.195625 -1.71125 4.39125 -1.5625 3.5625 C-1 1 -1 1 0 0 Z " fill="#FDFDFD" transform="translate(21,9)"/>
<path d="M0 0 C0 0.66 0 1.32 0 2 C-1.65 2.33 -3.3 2.66 -5 3 C-5 3.66 -5 4.32 -5 5 C-5.99 5 -6.98 5 -8 5 C-7.6875 3.0625 -7.6875 3.0625 -7 1 C-4 0 -4 0 0 0 Z " fill="#D0D7D8" transform="translate(76,6)"/>
<path d="M0 0 C2.64 0.66 5.28 1.32 8 2 C7.01 2.33 6.02 2.66 5 3 C5 3.66 5 4.32 5 5 C3.35 4.67 1.7 4.34 0 4 C0 2.68 0 1.36 0 0 Z " fill="#D3E7ED" transform="translate(69,16)"/>
<path d="M0 0 C0.66 0 1.32 0 2 0 C2 0.66 2 1.32 2 2 C1.34 2 0.68 2 0 2 C0 1.34 0 0.68 0 0 Z " fill="#FDFBFC" transform="translate(63,3)"/>
</svg>
